<svg width="29" height="38" viewBox="0 0 29 38" fill="none" xmlns="http://www.w3.org/2000/svg">
<path d="M26.8595 37.7652H14.4174L3.54974 20.5687L3.68335 0.328125L26.8595 37.7652Z" fill="white"/>
<path d="M16.3945 37.6755L5.56654 20.5436L5.69835 0.641846L28.6254 37.6755H16.3945Z" fill="#242247"/>
<path d="M5.78683 0.964564L28.4647 37.5949H16.4451L5.65682 20.5257L5.78683 0.964564ZM5.60627 0.337087L5.47266 20.5777L16.3403 37.7742H28.7825L5.60989 0.328125L5.60627 0.337087Z" fill="white"/>
<path d="M9.28601 0H0V38H9.28601V0Z" fill="white"/>
<path d="M10.9977 0.184692H1.89223V37.9104H10.9977V0.184692Z" fill="#242247"/>
<path d="M10.9074 0.272541V37.819H1.9825V0.272541H10.9074ZM11.088 0.0932617H1.80195V37.9982H11.088V0.0932617Z" fill="white"/>
<path d="M25.8556 0.0895996H1.89223V9.13064H25.8556V0.0895996Z" fill="#242247"/>
<path d="M25.7654 0.179279V9.03208H1.9825V0.179279H25.7654ZM25.9459 0H1.80195V9.21136H25.9459V0Z" fill="white"/>
</svg>
